<svg id="visual" viewBox="0 0 900 600" width="900" height="600" xmlns="http://www.w3.org/2000/svg" xmlns:xlink="http://www.w3.org/1999/xlink" version="1.1"><rect x="0" y="0" width="900" height="600" fill="#0f1332"></rect><g fill="#CCCCCC"><path d="M0 -81.2L18.2 -25.1L77.2 -25.1L29.5 9.6L47.7 65.7L0 31L-47.7 65.7L-29.5 9.6L-77.2 -25.1L-18.2 -25.1Z" transform="translate(747 518)"></path><path d="M0 -46.2L10.4 -14.3L44 -14.3L16.8 5.5L27.2 37.4L0 17.7L-27.2 37.4L-16.8 5.5L-44 -14.3L-10.4 -14.3Z" transform="translate(274 120)"></path><path d="M0 -62.3L14 -19.2L59.2 -19.2L22.6 7.4L36.6 50.4L0 23.8L-36.6 50.4L-22.6 7.4L-59.2 -19.2L-14 -19.2Z" transform="translate(122 305)"></path><path d="M0 -46.2L10.4 -14.3L44 -14.3L16.8 5.5L27.2 37.4L0 17.7L-27.2 37.4L-16.8 5.5L-44 -14.3L-10.4 -14.3Z" transform="translate(672 228)"></path><path d="M0 -50L11.2 -15.5L47.6 -15.5L18.2 5.9L29.4 40.5L0 19.1L-29.4 40.5L-18.2 5.9L-47.6 -15.5L-11.2 -15.5Z" transform="translate(778 88)"></path></g></svg>